<svg version="1.1" id="Layer_1" xmlns="http://www.w3.org/2000/svg" xmlns:xlink="http://www.w3.org/1999/xlink" x="0px" y="0px"
	 width="100%" viewBox="0 0 512 512" enable-background="new 0 0 512 512" xml:space="preserve">
<path fill="#3ABCA7" opacity="1.000000" stroke="none" 
	d="
M70.000000,1.000000 
	C185.355347,1.000000 300.710693,1.000000 416.718567,1.351660 
	C418.977692,2.005293 420.593384,2.265700 422.189453,2.615661 
	C438.425354,6.175574 451.670441,14.586500 462.599030,27.036467 
	C473.947144,39.964352 480.839844,54.855934 480.891022,72.034569 
	C481.147186,157.986877 481.033997,243.940292 480.707855,329.908752 
	C458.892822,307.198822 432.781677,294.464478 401.303558,293.818665 
	C368.718536,293.150146 341.218079,304.961823 318.664673,328.436310 
	C307.995972,339.540741 300.712158,352.714874 294.528870,366.839020 
	C277.770782,366.812164 261.480743,366.831329 245.190842,366.789673 
	C241.134506,366.779297 237.564819,367.628204 235.445847,371.492004 
	C231.908051,377.942993 236.437500,384.866211 244.517548,384.953217 
	C259.808350,385.117950 275.101898,385.032837 290.398682,385.496765 
	C286.829712,409.563385 290.141541,432.187775 301.293823,453.309692 
	C305.680969,461.618713 311.597565,469.120178 316.360657,476.991119 
	C237.093994,476.995453 158.284348,477.014984 79.474777,476.950684 
	C75.546127,476.947479 71.525726,476.622742 67.705856,475.753906 
	C51.863136,472.150360 37.939163,465.179077 26.514036,453.165375 
	C12.449968,438.376770 5.141723,420.856018 5.101118,400.748138 
	C4.884775,293.614075 5.016030,186.479279 4.971501,79.344765 
	C4.967362,69.386414 6.540754,59.789986 9.984083,50.439812 
	C16.832554,31.843159 29.077778,17.920265 46.754940,9.224856 
	C54.079578,5.621860 62.226845,3.691197 70.000000,1.000000 
M375.500000,129.000351 
	C386.157837,128.990768 396.818634,129.126404 407.472351,128.912415 
	C413.084625,128.799667 416.884888,124.860603 416.912781,119.885513 
	C416.940887,114.874771 413.175903,111.227737 407.531464,110.860016 
	C406.038300,110.762733 404.535339,110.803596 403.036865,110.803528 
	C351.412079,110.801239 299.787292,110.800964 248.162521,110.804817 
	C246.497849,110.804939 244.825607,110.758156 243.169922,110.893158 
	C237.869003,111.325371 234.234100,114.994530 234.222809,119.828613 
	C234.212051,124.434105 237.647964,128.199463 242.615616,128.855942 
	C244.255783,129.072693 245.939270,128.995178 247.602951,128.995422 
	C289.901978,129.001663 332.200989,129.000351 375.500000,129.000351 
M234.329269,246.828476 
	C235.003906,254.432510 237.903488,256.987335 246.105652,256.991364 
	C285.264648,257.010651 324.423645,257.000214 363.582642,257.000305 
	C377.246643,257.000366 390.910614,257.012268 404.574615,256.995697 
	C412.545441,256.986023 416.963287,253.663422 416.915161,247.776566 
	C416.867218,241.912216 412.592072,238.836411 404.415955,238.804733 
	C400.416809,238.789246 396.417511,238.801498 392.418304,238.801529 
	C343.761169,238.801987 295.104034,238.795563 246.446884,238.810028 
	C238.659378,238.812332 236.825195,239.976974 234.329269,246.828476 
M187.714813,73.670135 
	C185.875244,71.085335 184.538879,67.760117 182.078857,66.088226 
	C178.333572,63.542816 174.224701,65.263931 170.054153,70.116425 
	C152.680817,90.330521 135.346146,110.577866 117.991714,130.808212 
	C116.921661,132.055573 115.803368,133.261551 114.547691,134.665482 
	C112.828415,133.434326 111.332230,132.404449 109.879829,131.316162 
	C100.283089,124.125137 90.727882,116.878197 81.091774,109.740425 
	C76.290306,106.183838 71.880135,106.066856 68.345657,109.123001 
	C63.407333,113.392960 64.033493,119.675560 70.141014,124.320648 
	C82.866959,133.999390 95.680557,143.563431 108.499413,153.119232 
	C114.928169,157.911530 119.227882,157.460251 124.484543,151.344315 
	C144.355835,128.224792 164.211639,105.091522 183.939896,81.850220 
	C185.682907,79.796822 186.458328,76.922089 187.714813,73.670135 
M94.067444,247.458450 
	C89.257790,243.878098 84.566353,240.122787 79.603577,236.769028 
	C75.088348,233.717682 70.114799,234.554535 67.093513,238.386826 
	C63.925293,242.405487 64.569664,247.418472 68.790291,251.266769 
	C69.648949,252.049683 70.609627,252.723297 71.541718,253.422714 
	C83.532722,262.420502 95.521942,271.420685 107.522423,280.405853 
	C115.268936,286.205902 118.960487,285.795258 125.332657,278.370544 
	C144.538452,255.992294 163.730515,233.602264 182.910690,211.202042 
	C184.097641,209.815826 185.290024,208.393204 186.212784,206.829880 
	C188.552399,202.866058 187.883911,198.366699 184.693985,195.468872 
	C181.317062,192.401230 176.633453,192.281860 172.844131,195.339615 
	C171.433121,196.478241 170.230209,197.899155 169.041046,199.284592 
	C153.415024,217.489456 137.811676,235.713806 122.193718,253.925598 
	C119.719322,256.810974 117.201218,259.658875 114.508347,262.747711 
	C107.688499,257.650269 101.162827,252.772720 94.067444,247.458450 
M103.762444,414.731537 
	C104.430969,415.228699 105.102028,415.722473 105.767654,416.223480 
	C115.844765,423.808594 118.417923,423.563690 126.510612,414.133881 
	C145.394211,392.130249 164.269485,370.119476 183.122604,348.089722 
	C184.415359,346.579163 185.742935,345.011505 186.626587,343.255188 
	C188.687057,339.159821 187.796143,335.313812 184.394943,332.446869 
	C180.994537,329.580627 177.067307,329.336578 173.379471,332.096710 
	C171.800827,333.278259 170.453995,334.812744 169.156479,336.320007 
	C157.849884,349.454346 146.579727,362.620056 135.295944,375.774078 
	C128.470673,383.730591 121.640480,391.682892 114.554672,399.937439 
	C103.812546,391.881958 93.325790,383.986420 82.793777,376.151703 
	C81.070076,374.869507 79.251526,373.613098 77.294067,372.768066 
	C73.235863,371.016205 69.691879,372.307251 67.075996,375.602966 
	C64.416565,378.953583 64.268929,382.742798 66.863792,386.215515 
	C68.131226,387.911743 69.905907,389.285889 71.620277,390.581848 
	C82.119835,398.519012 92.667908,406.391998 103.762444,414.731537 
z"/>
<path fill="#F29C22" opacity="1.000000" stroke="none" 
	d="
M316.817657,476.989380 
	C311.597565,469.120178 305.680969,461.618713 301.293823,453.309692 
	C290.141541,432.187775 286.829712,409.563385 290.570740,385.165283 
	C292.157928,378.546600 293.577454,372.704590 294.996979,366.862579 
	C300.712158,352.714874 307.995972,339.540741 318.664673,328.436310 
	C341.218079,304.961823 368.718536,293.150146 401.303558,293.818665 
	C432.781677,294.464478 458.892822,307.198822 481.010620,330.075806 
	C481.779755,330.534821 481.833282,330.901825 482.036926,331.141174 
	C497.189911,348.952057 505.832977,369.298828 508.294373,392.750061 
	C509.932922,408.361603 507.929932,423.331207 503.365021,437.858582 
	C497.699036,455.890076 487.508606,471.392273 473.349609,484.262390 
	C459.504974,496.846863 443.888519,505.837311 425.590759,510.020111 
	C421.386505,510.981201 417.196533,512.005066 413.000000,513.000000 
	C403.645782,513.000000 394.291534,513.000000 384.280457,512.637268 
	C357.054901,508.654236 334.837524,496.795380 316.817657,476.989380 
M403.500000,394.085297 
	C384.865204,394.085327 366.230316,394.063141 347.595673,394.115845 
	C345.458374,394.121887 343.231781,394.240509 341.204193,394.839935 
	C336.827454,396.133911 334.671753,399.341797 334.969604,403.872314 
	C335.266663,408.390778 337.820526,411.221863 342.305359,412.044556 
	C344.088776,412.371674 345.945892,412.389648 347.769562,412.390594 
	C381.711548,412.408325 415.653503,412.408783 449.595490,412.384674 
	C451.583466,412.383240 453.616364,412.364868 455.550385,411.971191 
	C460.638123,410.935516 463.514832,406.046326 462.189514,401.005127 
	C460.989929,396.442139 457.547424,394.131287 451.419739,394.107941 
	C435.780029,394.048309 420.139923,394.086334 403.500000,394.085297 
z"/>
<path fill="#FFFFFF" opacity="1.000000" stroke="none" 
	d="
M316.360657,476.991119 
	C334.837524,496.795380 357.054901,508.654236 383.811829,512.637268 
	C256.391266,513.000000 128.782562,513.000000 1.086920,513.000000 
	C1.086920,342.333344 1.086920,171.666687 1.090231,1.000007 
	C23.749922,1.000000 46.406303,1.000000 69.531342,1.000000 
	C62.226845,3.691197 54.079578,5.621860 46.754940,9.224856 
	C29.077778,17.920265 16.832554,31.843159 9.984083,50.439812 
	C6.540754,59.789986 4.967362,69.386414 4.971501,79.344765 
	C5.016030,186.479279 4.884775,293.614075 5.101118,400.748138 
	C5.141723,420.856018 12.449968,438.376770 26.514036,453.165375 
	C37.939163,465.179077 51.863136,472.150360 67.705856,475.753906 
	C71.525726,476.622742 75.546127,476.947479 79.474777,476.950684 
	C158.284348,477.014984 237.093994,476.995453 316.360657,476.991119 
z"/>
<path fill="#FFFFFF" opacity="1.000000" stroke="none" 
	d="
M413.468658,513.000000 
	C417.196533,512.005066 421.386505,510.981201 425.590759,510.020111 
	C443.888519,505.837311 459.504974,496.846863 473.349609,484.262390 
	C487.508606,471.392273 497.699036,455.890076 503.365021,437.858582 
	C507.929932,423.331207 509.932922,408.361603 508.294373,392.750061 
	C505.832977,369.298828 497.189911,348.952057 482.036926,331.141174 
	C481.833282,330.901825 481.779755,330.534821 481.353394,330.060364 
	C481.033997,243.940292 481.147186,157.986877 480.891022,72.034569 
	C480.839844,54.855934 473.947144,39.964352 462.599030,27.036467 
	C451.670441,14.586500 438.425354,6.175574 422.189453,2.615661 
	C420.593384,2.265700 418.977692,2.005293 417.185547,1.351660 
	C448.980225,1.000000 480.960449,1.000000 512.939331,1.000004 
	C512.938049,171.666672 512.938049,342.333344 512.938049,513.000000 
	C479.896515,513.000000 446.916901,513.000000 413.468658,513.000000 
z"/>
<path fill="#FFFFFF" opacity="1.000000" stroke="none" 
	d="
M375.000000,129.000366 
	C332.200989,129.000351 289.901978,129.001663 247.602951,128.995422 
	C245.939270,128.995178 244.255783,129.072693 242.615616,128.855942 
	C237.647964,128.199463 234.212051,124.434105 234.222809,119.828613 
	C234.234100,114.994530 237.869003,111.325371 243.169922,110.893158 
	C244.825607,110.758156 246.497849,110.804939 248.162521,110.804817 
	C299.787292,110.800964 351.412079,110.801239 403.036865,110.803528 
	C404.535339,110.803596 406.038300,110.762733 407.531464,110.860016 
	C413.175903,111.227737 416.940887,114.874771 416.912781,119.885513 
	C416.884888,124.860603 413.084625,128.799667 407.472351,128.912415 
	C396.818634,129.126404 386.157837,128.990768 375.000000,129.000366 
z"/>
<path fill="#FFFFFF" opacity="1.000000" stroke="none" 
	d="
M234.427826,246.459808 
	C236.825195,239.976974 238.659378,238.812332 246.446884,238.810028 
	C295.104034,238.795563 343.761169,238.801987 392.418304,238.801529 
	C396.417511,238.801498 400.416809,238.789246 404.415955,238.804733 
	C412.592072,238.836411 416.867218,241.912216 416.915161,247.776566 
	C416.963287,253.663422 412.545441,256.986023 404.574615,256.995697 
	C390.910614,257.012268 377.246643,257.000366 363.582642,257.000305 
	C324.423645,257.000214 285.264648,257.010651 246.105652,256.991364 
	C237.903488,256.987335 235.003906,254.432510 234.427826,246.459808 
z"/>
<path fill="#FCFEFE" opacity="1.000000" stroke="none" 
	d="
M187.698990,74.049484 
	C186.458328,76.922089 185.682907,79.796822 183.939896,81.850220 
	C164.211639,105.091522 144.355835,128.224792 124.484543,151.344315 
	C119.227882,157.460251 114.928169,157.911530 108.499413,153.119232 
	C95.680557,143.563431 82.866959,133.999390 70.141014,124.320648 
	C64.033493,119.675560 63.407333,113.392960 68.345657,109.123001 
	C71.880135,106.066856 76.290306,106.183838 81.091774,109.740425 
	C90.727882,116.878197 100.283089,124.125137 109.879829,131.316162 
	C111.332230,132.404449 112.828415,133.434326 114.547691,134.665482 
	C115.803368,133.261551 116.921661,132.055573 117.991714,130.808212 
	C135.346146,110.577866 152.680817,90.330521 170.054153,70.116425 
	C174.224701,65.263931 178.333572,63.542816 182.078857,66.088226 
	C184.538879,67.760117 185.875244,71.085335 187.698990,74.049484 
z"/>
<path fill="#FCFEFE" opacity="1.000000" stroke="none" 
	d="
M94.352295,247.676804 
	C101.162827,252.772720 107.688499,257.650269 114.508347,262.747711 
	C117.201218,259.658875 119.719322,256.810974 122.193718,253.925598 
	C137.811676,235.713806 153.415024,217.489456 169.041046,199.284592 
	C170.230209,197.899155 171.433121,196.478241 172.844131,195.339615 
	C176.633453,192.281860 181.317062,192.401230 184.693985,195.468872 
	C187.883911,198.366699 188.552399,202.866058 186.212784,206.829880 
	C185.290024,208.393204 184.097641,209.815826 182.910690,211.202042 
	C163.730515,233.602264 144.538452,255.992294 125.332657,278.370544 
	C118.960487,285.795258 115.268936,286.205902 107.522423,280.405853 
	C95.521942,271.420685 83.532722,262.420502 71.541718,253.422714 
	C70.609627,252.723297 69.648949,252.049683 68.790291,251.266769 
	C64.569664,247.418472 63.925293,242.405487 67.093513,238.386826 
	C70.114799,234.554535 75.088348,233.717682 79.603577,236.769028 
	C84.566353,240.122787 89.257790,243.878098 94.352295,247.676804 
z"/>
<path fill="#FCFEFE" opacity="1.000000" stroke="none" 
	d="
M103.481140,414.508972 
	C92.667908,406.391998 82.119835,398.519012 71.620277,390.581848 
	C69.905907,389.285889 68.131226,387.911743 66.863792,386.215515 
	C64.268929,382.742798 64.416565,378.953583 67.075996,375.602966 
	C69.691879,372.307251 73.235863,371.016205 77.294067,372.768066 
	C79.251526,373.613098 81.070076,374.869507 82.793777,376.151703 
	C93.325790,383.986420 103.812546,391.881958 114.554672,399.937439 
	C121.640480,391.682892 128.470673,383.730591 135.295944,375.774078 
	C146.579727,362.620056 157.849884,349.454346 169.156479,336.320007 
	C170.453995,334.812744 171.800827,333.278259 173.379471,332.096710 
	C177.067307,329.336578 180.994537,329.580627 184.394943,332.446869 
	C187.796143,335.313812 188.687057,339.159821 186.626587,343.255188 
	C185.742935,345.011505 184.415359,346.579163 183.122604,348.089722 
	C164.269485,370.119476 145.394211,392.130249 126.510612,414.133881 
	C118.417923,423.563690 115.844765,423.808594 105.767654,416.223480 
	C105.102028,415.722473 104.430969,415.228699 103.481140,414.508972 
z"/>
<path fill="#FEFFFE" opacity="1.000000" stroke="none" 
	d="
M294.528870,366.839020 
	C293.577454,372.704590 292.157928,378.546600 290.566345,384.720093 
	C275.101898,385.032837 259.808350,385.117950 244.517548,384.953217 
	C236.437500,384.866211 231.908051,377.942993 235.445847,371.492004 
	C237.564819,367.628204 241.134506,366.779297 245.190842,366.789673 
	C261.480743,366.831329 277.770782,366.812164 294.528870,366.839020 
z"/>
<path fill="#FFFEFD" opacity="1.000000" stroke="none" 
	d="
M404.000000,394.085297 
	C420.139923,394.086334 435.780029,394.048309 451.419739,394.107941 
	C457.547424,394.131287 460.989929,396.442139 462.189514,401.005127 
	C463.514832,406.046326 460.638123,410.935516 455.550385,411.971191 
	C453.616364,412.364868 451.583466,412.383240 449.595490,412.384674 
	C415.653503,412.408783 381.711548,412.408325 347.769562,412.390594 
	C345.945892,412.389648 344.088776,412.371674 342.305359,412.044556 
	C337.820526,411.221863 335.266663,408.390778 334.969604,403.872314 
	C334.671753,399.341797 336.827454,396.133911 341.204193,394.839935 
	C343.231781,394.240509 345.458374,394.121887 347.595673,394.115845 
	C366.230316,394.063141 384.865204,394.085327 404.000000,394.085297 
z"/>
</svg>